<?xml version="1.0" encoding="utf-8"?>
<!-- Generator: Adobe Illustrator 19.0.0, SVG Export Plug-In . SVG Version: 6.00 Build 0)  -->
<svg version="1.1" id="图层_1" xmlns="http://www.w3.org/2000/svg" xmlns:xlink="http://www.w3.org/1999/xlink" x="0px" y="0px"
	 viewBox="0 0 160 160" style="enable-background:new 0 0 160 160;" xml:space="preserve">
<style type="text/css">
	.st0{fill:#13B5B1;}
</style>
<g id="XMLID_105_">
	<g id="XMLID_3_">
		<path id="XMLID_17_" class="st0" d="M57.4,10.1c0.9,3.4,3.1,6.2,6.1,8.2c1.6-3.3,2.1-6.8,1.1-10.1C63.7,4.8,61.6,2,58.6,0
			C57,3.3,56.5,6.8,57.4,10.1z"/>
	</g>
	<g id="XMLID_6_">
		<path id="XMLID_7_" class="st0" d="M25.5,30.8c2.5,2.5,5.7,3.8,9.4,4.1c-0.3-3.6-1.6-6.9-4.1-9.4s-5.7-3.8-9.4-4.1
			C21.7,25,23,28.3,25.5,30.8z"/>
	</g>
	<g id="XMLID_8_">
		<path id="XMLID_9_" class="st0" d="M8.2,64.6c3.4,0.9,6.9,0.4,10.1-1.1c-2-3-4.8-5.2-8.2-6.1C6.8,56.5,3.3,57,0,58.6
			C2,61.6,4.8,63.7,8.2,64.6z"/>
	</g>
	<g id="XMLID_10_">
		<path id="XMLID_11_" class="st0" d="M10.1,102.6c3.4-0.9,6.2-3.1,8.2-6.1c-3.3-1.6-6.8-2.1-10.1-1.1C4.8,96.3,2,98.4,0,101.4
			C3.3,103,6.8,103.5,10.1,102.6z"/>
	</g>
	<g id="XMLID_12_">
		<path id="XMLID_13_" class="st0" d="M30.8,134.5c2.5-2.5,3.8-5.7,4.1-9.4c-3.6,0.3-6.9,1.6-9.4,4.1s-3.8,5.7-4.1,9.4
			C25,138.3,28.3,137,30.8,134.5z"/>
	</g>
	<g id="XMLID_14_">
		<path id="XMLID_15_" class="st0" d="M64.6,151.8c0.9-3.4,0.4-6.9-1.1-10.1c-3,2-5.2,4.8-6.1,8.2c-0.9,3.4-0.4,6.9,1.1,10.1
			C61.6,158,63.7,155.2,64.6,151.8z"/>
	</g>
	<g id="XMLID_19_">
		<path id="XMLID_71_" class="st0" d="M102.6,149.9c-0.9-3.4-3.1-6.2-6.1-8.2c-1.6,3.3-2.1,6.8-1.1,10.1c0.9,3.4,3.1,6.2,6.1,8.2
			C103,156.7,103.5,153.2,102.6,149.9z"/>
	</g>
	<g id="XMLID_72_">
		<path id="XMLID_73_" class="st0" d="M134.5,129.2c-2.5-2.5-5.7-3.8-9.4-4.1c0.3,3.6,1.6,6.9,4.1,9.4c2.5,2.5,5.7,3.8,9.4,4.1
			C138.3,135,137,131.7,134.5,129.2z"/>
	</g>
	<g id="XMLID_74_">
		<path id="XMLID_75_" class="st0" d="M151.8,95.4c-3.4-0.9-6.9-0.4-10.1,1.1c2,3,4.8,5.2,8.2,6.1c3.4,0.9,6.9,0.4,10.1-1.1
			C158,98.4,155.2,96.3,151.8,95.4z"/>
	</g>
	<g id="XMLID_76_">
		<path id="XMLID_77_" class="st0" d="M149.9,57.4c-3.4,0.9-6.2,3.1-8.2,6.1c3.3,1.6,6.8,2.1,10.1,1.1c3.4-0.9,6.2-3.1,8.2-6.1
			C156.7,57,153.2,56.5,149.9,57.4z"/>
	</g>
	<g id="XMLID_78_">
		<path id="XMLID_79_" class="st0" d="M129.2,25.5c-2.5,2.5-3.8,5.7-4.1,9.4c3.6-0.3,6.9-1.6,9.4-4.1c2.5-2.5,3.8-5.7,4.1-9.4
			C135,21.7,131.7,23,129.2,25.5z"/>
	</g>
	<g id="XMLID_80_">
		<path id="XMLID_81_" class="st0" d="M95.4,8.2c-0.9,3.4-0.4,6.9,1.1,10.1c3-2,5.2-4.8,6.1-8.2c0.9-3.4,0.4-6.9-1.1-10.1
			C98.4,2,96.3,4.8,95.4,8.2z"/>
	</g>
</g>
<g id="XMLID_4_">
	<g id="XMLID_46_">
		<rect id="XMLID_5_" x="78.2" y="28.6" class="st0" width="3.6" height="14.5"/>
	</g>
	<g id="XMLID_47_">
		
			<rect id="XMLID_48_" x="66.8" y="30.1" transform="matrix(0.9659 -0.2588 0.2588 0.9659 -7.3371 19.0232)" class="st0" width="3.6" height="14.5"/>
	</g>
	<g id="XMLID_49_">
		
			<rect id="XMLID_50_" x="56.1" y="34.5" transform="matrix(0.866 -0.5 0.5 0.866 -13.1306 34.5665)" class="st0" width="3.6" height="14.5"/>
	</g>
	<g id="XMLID_51_">
		
			<rect id="XMLID_52_" x="47" y="41.6" transform="matrix(0.7071 -0.7071 0.7071 0.7071 -20.2127 48.7978)" class="st0" width="3.6" height="14.5"/>
	</g>
	<g id="XMLID_53_">
		
			<rect id="XMLID_54_" x="40" y="50.7" transform="matrix(0.5 -0.866 0.866 0.5 -29.282 65.1555)" class="st0" width="3.6" height="14.5"/>
	</g>
	<g id="XMLID_55_">
		
			<rect id="XMLID_56_" x="35.6" y="61.3" transform="matrix(0.2588 -0.9659 0.9659 0.2588 -38.5393 86.9331)" class="st0" width="3.6" height="14.5"/>
	</g>
	<g id="XMLID_57_">
		<rect id="XMLID_58_" x="28.6" y="78.2" class="st0" width="14.5" height="3.6"/>
	</g>
	<g id="XMLID_59_">
		
			<rect id="XMLID_60_" x="35.6" y="84.2" transform="matrix(-0.2588 -0.9659 0.9659 -0.2588 -41.2547 151.1857)" class="st0" width="3.6" height="14.5"/>
	</g>
	<g id="XMLID_61_">
		
			<rect id="XMLID_62_" x="40" y="94.8" transform="matrix(-0.5 -0.866 0.866 -0.5 -25.7114 189.282)" class="st0" width="3.6" height="14.5"/>
	</g>
	<g id="XMLID_63_">
		
			<rect id="XMLID_64_" x="47" y="104" transform="matrix(-0.7071 -0.7071 0.7071 -0.7071 4.6713 224.3392)" class="st0" width="3.6" height="14.5"/>
	</g>
	<g id="XMLID_65_">
		
			<rect id="XMLID_66_" x="56.1" y="111" transform="matrix(-0.866 -0.5 0.5 -0.866 49.0041 249.56)" class="st0" width="3.6" height="14.5"/>
	</g>
	<g id="XMLID_67_">
		
			<rect id="XMLID_68_" x="66.8" y="115.4" transform="matrix(-0.9659 -0.2588 0.2588 -0.9659 103.0845 258.8172)" class="st0" width="3.6" height="14.5"/>
	</g>
	<g id="XMLID_69_">
		<rect id="XMLID_82_" x="78.2" y="116.9" class="st0" width="3.6" height="14.5"/>
	</g>
	<g id="XMLID_83_">
		
			<rect id="XMLID_84_" x="89.6" y="115.4" transform="matrix(-0.9659 0.2588 -0.2588 -0.9659 211.4636 217.4062)" class="st0" width="3.6" height="14.5"/>
	</g>
	<g id="XMLID_85_">
		
			<rect id="XMLID_86_" x="100.3" y="111" transform="matrix(-0.866 0.5 -0.5 -0.866 249.56 169.56)" class="st0" width="3.6" height="14.5"/>
	</g>
	<g id="XMLID_87_">
		
			<rect id="XMLID_88_" x="109.4" y="104" transform="matrix(-0.7071 0.7071 -0.7071 -0.7071 268.4658 111.2022)" class="st0" width="3.6" height="14.5"/>
	</g>
	<g id="XMLID_89_">
		
			<rect id="XMLID_90_" x="116.4" y="94.8" transform="matrix(-0.5 0.866 -0.866 -0.5 265.7114 50.718)" class="st0" width="3.6" height="14.5"/>
	</g>
	<g id="XMLID_91_">
		
			<rect id="XMLID_92_" x="120.8" y="84.2" transform="matrix(-0.2588 0.9659 -0.9659 -0.2588 242.6658 -3.3624)" class="st0" width="3.6" height="14.5"/>
	</g>
	<g id="XMLID_93_">
		<rect id="XMLID_94_" x="116.9" y="78.2" class="st0" width="14.5" height="3.6"/>
	</g>
	<g id="XMLID_95_">
		
			<rect id="XMLID_96_" x="120.8" y="61.3" transform="matrix(0.2588 0.9659 -0.9659 0.2588 157.1282 -67.6151)" class="st0" width="3.6" height="14.5"/>
	</g>
	<g id="XMLID_97_">
		
			<rect id="XMLID_98_" x="116.4" y="50.7" transform="matrix(0.5 0.866 -0.866 0.5 109.282 -73.4086)" class="st0" width="3.6" height="14.5"/>
	</g>
	<g id="XMLID_99_">
		
			<rect id="XMLID_100_" x="109.4" y="41.6" transform="matrix(0.7071 0.7071 -0.7071 0.7071 67.0756 -64.3392)" class="st0" width="3.6" height="14.5"/>
	</g>
	<g id="XMLID_101_">
		
			<rect id="XMLID_102_" x="100.3" y="34.5" transform="matrix(0.866 0.5 -0.5 0.866 34.5665 -45.4335)" class="st0" width="3.6" height="14.5"/>
	</g>
	<g id="XMLID_103_">
		
			<rect id="XMLID_104_" x="89.6" y="30.1" transform="matrix(0.9659 0.2588 -0.2588 0.9659 12.789 -22.3878)" class="st0" width="3.6" height="14.5"/>
	</g>
</g>
</svg>
