<?xml version="1.0" encoding="utf-8"?>
<!-- Generator: Adobe Illustrator 19.0.0, SVG Export Plug-In . SVG Version: 6.00 Build 0)  -->
<svg version="1.1" id="图层_1" xmlns="http://www.w3.org/2000/svg" xmlns:xlink="http://www.w3.org/1999/xlink" x="0px" y="0px"
	 viewBox="0 0 280 280" style="enable-background:new 0 0 280 280;" xml:space="preserve">
<style type="text/css">
	.st0{fill:#8F82BC;}
</style>
<g id="XMLID_106_">
	<circle id="XMLID_16_" class="st0" cx="140" cy="5" r="5"/>
	<circle id="XMLID_20_" class="st0" cx="110" cy="8.4" r="5"/>
	<circle id="XMLID_21_" class="st0" cx="81.4" cy="18.4" r="5"/>
	<circle id="XMLID_22_" class="st0" cx="55.8" cy="34.5" r="5"/>
	<circle id="XMLID_23_" class="st0" cx="34.5" cy="55.8" r="5"/>
	<circle id="XMLID_24_" class="st0" cx="18.4" cy="81.4" r="5"/>
	<circle id="XMLID_25_" class="st0" cx="8.4" cy="110" r="5"/>
	<circle id="XMLID_26_" class="st0" cx="5" cy="140" r="5"/>
	<circle id="XMLID_27_" class="st0" cx="8.4" cy="170" r="5"/>
	<circle id="XMLID_28_" class="st0" cx="18.4" cy="198.6" r="5"/>
	<circle id="XMLID_29_" class="st0" cx="34.5" cy="224.2" r="5"/>
	<circle id="XMLID_30_" class="st0" cx="55.8" cy="245.5" r="5"/>
	<circle id="XMLID_31_" class="st0" cx="81.4" cy="261.6" r="5"/>
	<circle id="XMLID_32_" class="st0" cx="110" cy="271.6" r="5"/>
	<circle id="XMLID_33_" class="st0" cx="140" cy="275" r="5"/>
	<circle id="XMLID_34_" class="st0" cx="170" cy="271.6" r="5"/>
	<circle id="XMLID_35_" class="st0" cx="198.6" cy="261.6" r="5"/>
	<circle id="XMLID_36_" class="st0" cx="224.2" cy="245.5" r="5"/>
	<circle id="XMLID_37_" class="st0" cx="245.5" cy="224.2" r="5"/>
	<circle id="XMLID_38_" class="st0" cx="261.6" cy="198.6" r="5"/>
	<circle id="XMLID_39_" class="st0" cx="271.6" cy="170" r="5"/>
	<circle id="XMLID_40_" class="st0" cx="275" cy="140" r="5"/>
	<circle id="XMLID_41_" class="st0" cx="271.6" cy="110" r="5"/>
	<circle id="XMLID_42_" class="st0" cx="261.6" cy="81.4" r="5"/>
	<circle id="XMLID_43_" class="st0" cx="245.5" cy="55.8" r="5"/>
	<circle id="XMLID_44_" class="st0" cx="224.2" cy="34.5" r="5"/>
	<circle id="XMLID_45_" class="st0" cx="198.6" cy="18.4" r="5"/>
	<circle id="XMLID_70_" class="st0" cx="170" cy="8.4" r="5"/>
</g>
<g id="XMLID_4_">
	<g id="XMLID_46_">
		<rect id="XMLID_5_" x="137.3" y="64.3" class="st0" width="5.3" height="21.3"/>
	</g>
	<g id="XMLID_47_">
		
			<rect id="XMLID_48_" x="120.5" y="66.5" transform="matrix(0.9659 -0.2588 0.2588 0.9659 -15.7875 34.5115)" class="st0" width="5.3" height="21.3"/>
	</g>
	<g id="XMLID_49_">
		
			<rect id="XMLID_50_" x="104.8" y="73" transform="matrix(0.866 -0.5 0.5 0.866 -27.4519 64.9648)" class="st0" width="5.3" height="21.3"/>
	</g>
	<g id="XMLID_51_">
		
			<rect id="XMLID_52_" x="91.4" y="83.4" transform="matrix(0.7071 -0.7071 0.7071 0.7071 -38.9518 94.0381)" class="st0" width="5.3" height="21.3"/>
	</g>
	<g id="XMLID_53_">
		
			<rect id="XMLID_54_" x="81" y="96.8" transform="matrix(0.5 -0.866 0.866 0.5 -51.2435 126.2435)" class="st0" width="5.3" height="21.3"/>
	</g>
	<g id="XMLID_55_">
		
			<rect id="XMLID_56_" x="74.5" y="112.5" transform="matrix(0.2588 -0.9659 0.9659 0.2588 -61.7495 165.8801)" class="st0" width="5.3" height="21.3"/>
	</g>
	<g id="XMLID_57_">
		<rect id="XMLID_58_" x="64.3" y="137.3" class="st0" width="21.3" height="5.3"/>
	</g>
	<g id="XMLID_59_">
		
			<rect id="XMLID_60_" x="74.5" y="146.2" transform="matrix(-0.2588 -0.9659 0.9659 -0.2588 -54.2801 271.9958)" class="st0" width="5.3" height="21.3"/>
	</g>
	<g id="XMLID_61_">
		
			<rect id="XMLID_62_" x="81" y="161.8" transform="matrix(-0.5 -0.866 0.866 -0.5 -23.8269 331.2435)" class="st0" width="5.3" height="21.3"/>
	</g>
	<g id="XMLID_63_">
		
			<rect id="XMLID_64_" x="91.4" y="175.3" transform="matrix(-0.7071 -0.7071 0.7071 -0.7071 29.038 383.9518)" class="st0" width="5.3" height="21.3"/>
	</g>
	<g id="XMLID_65_">
		
			<rect id="XMLID_66_" x="104.8" y="185.6" transform="matrix(-0.866 -0.5 0.5 -0.866 102.4519 420.0352)" class="st0" width="5.3" height="21.3"/>
	</g>
	<g id="XMLID_67_">
		
			<rect id="XMLID_68_" x="120.5" y="192.1" transform="matrix(-0.9659 -0.2588 0.2588 -0.9659 189.6717 430.5411)" class="st0" width="5.3" height="21.3"/>
	</g>
	<g id="XMLID_69_">
		<rect id="XMLID_82_" x="137.3" y="194.3" class="st0" width="5.3" height="21.3"/>
	</g>
	<g id="XMLID_83_">
		
			<rect id="XMLID_84_" x="154.2" y="192.1" transform="matrix(-0.9659 0.2588 -0.2588 -0.9659 360.7875 358.0718)" class="st0" width="5.3" height="21.3"/>
	</g>
	<g id="XMLID_85_">
		
			<rect id="XMLID_86_" x="169.8" y="185.6" transform="matrix(-0.866 0.5 -0.5 -0.866 420.0352 280.0352)" class="st0" width="5.3" height="21.3"/>
	</g>
	<g id="XMLID_87_">
		
			<rect id="XMLID_88_" x="183.3" y="175.3" transform="matrix(-0.7071 0.7071 -0.7071 -0.7071 448.9518 185.962)" class="st0" width="5.3" height="21.3"/>
	</g>
	<g id="XMLID_89_">
		
			<rect id="XMLID_90_" x="193.6" y="161.8" transform="matrix(-0.5 0.866 -0.866 -0.5 443.8269 88.7565)" class="st0" width="5.3" height="21.3"/>
	</g>
	<g id="XMLID_91_">
		
			<rect id="XMLID_92_" x="200.1" y="146.2" transform="matrix(-0.2588 0.9659 -0.9659 -0.2588 406.7495 1.5366)" class="st0" width="5.3" height="21.3"/>
	</g>
	<g id="XMLID_93_">
		<rect id="XMLID_94_" x="194.3" y="137.3" class="st0" width="21.3" height="5.3"/>
	</g>
	<g id="XMLID_95_">
		
			<rect id="XMLID_96_" x="200.1" y="112.5" transform="matrix(0.2588 0.9659 -0.9659 0.2588 269.2802 -104.5792)" class="st0" width="5.3" height="21.3"/>
	</g>
	<g id="XMLID_97_">
		
			<rect id="XMLID_98_" x="193.6" y="96.8" transform="matrix(0.5 0.866 -0.866 0.5 191.2436 -116.2436)" class="st0" width="5.3" height="21.3"/>
	</g>
	<g id="XMLID_99_">
		
			<rect id="XMLID_100_" x="183.3" y="83.4" transform="matrix(0.7071 0.7071 -0.7071 0.7071 120.9619 -103.9519)" class="st0" width="5.3" height="21.3"/>
	</g>
	<g id="XMLID_101_">
		
			<rect id="XMLID_102_" x="169.8" y="73" transform="matrix(0.866 0.5 -0.5 0.866 64.9648 -75.0352)" class="st0" width="5.3" height="21.3"/>
	</g>
	<g id="XMLID_103_">
		
			<rect id="XMLID_104_" x="154.2" y="66.5" transform="matrix(0.9659 0.2588 -0.2588 0.9659 25.3283 -37.9578)" class="st0" width="5.3" height="21.3"/>
	</g>
</g>
</svg>
