<?xml version="1.0" encoding="utf-8"?>
<!-- Generator: Adobe Illustrator 19.0.0, SVG Export Plug-In . SVG Version: 6.00 Build 0)  -->
<svg version="1.1" id="图层_1" xmlns="http://www.w3.org/2000/svg" xmlns:xlink="http://www.w3.org/1999/xlink" x="0px" y="0px"
		 viewBox="0 0 130 130" style="enable-background:new 0 0 130 130;" xml:space="preserve">
	<style type="text/css">
		.st0{fill:#13B5B1;}
	</style>
	<g id="XMLID_105_">
		<g id="XMLID_3_">
			<path id="XMLID_17_" class="st0" d="M49.6,17.2c0.6,2.3,2.1,4.2,4.1,5.6c1.1-2.2,1.4-4.6,0.8-6.9s-2.1-4.2-4.1-5.6
				C49.3,12.5,48.9,14.9,49.6,17.2z"/>
		</g>
		<g id="XMLID_6_">
			<path id="XMLID_7_" class="st0" d="M27.7,31.3c1.7,1.7,3.9,2.6,6.4,2.8c-0.2-2.5-1.1-4.7-2.8-6.4c-1.7-1.7-3.9-2.6-6.4-2.8
				C25.1,27.4,26,29.7,27.7,31.3z"/>
		</g>
		<g id="XMLID_8_">
			<path id="XMLID_9_" class="st0" d="M15.9,54.5c2.3,0.6,4.7,0.3,6.9-0.8c-1.4-2-3.3-3.5-5.6-4.1c-2.3-0.6-4.7-0.3-6.9,0.8
				C11.7,52.4,13.6,53.9,15.9,54.5z"/>
		</g>
		<g id="XMLID_10_">
			<path id="XMLID_11_" class="st0" d="M17.2,80.4c2.3-0.6,4.2-2.1,5.6-4.1c-2.2-1.1-4.6-1.4-6.9-0.8c-2.3,0.6-4.2,2.1-5.6,4.1
				C12.5,80.7,14.9,81.1,17.2,80.4z"/>
		</g>
		<g id="XMLID_12_">
			<path id="XMLID_13_" class="st0" d="M31.3,102.3c1.7-1.7,2.6-3.9,2.8-6.4c-2.5,0.2-4.7,1.1-6.4,2.8s-2.6,3.9-2.8,6.4
				C27.4,104.9,29.7,104,31.3,102.3z"/>
		</g>
		<g id="XMLID_14_">
			<path id="XMLID_15_" class="st0" d="M54.5,114.1c0.6-2.3,0.3-4.7-0.8-6.9c-2,1.4-3.5,3.3-4.1,5.6c-0.6,2.3-0.3,4.7,0.8,6.9
				C52.4,118.3,53.9,116.4,54.5,114.1z"/>
		</g>
		<g id="XMLID_19_">
			<path id="XMLID_71_" class="st0" d="M80.4,112.8c-0.6-2.3-2.1-4.2-4.1-5.6c-1.1,2.2-1.4,4.6-0.8,6.9c0.6,2.3,2.1,4.2,4.1,5.6
				C80.7,117.5,81.1,115.1,80.4,112.8z"/>
		</g>
		<g id="XMLID_72_">
			<path id="XMLID_73_" class="st0" d="M102.3,98.7c-1.7-1.7-3.9-2.6-6.4-2.8c0.2,2.5,1.1,4.7,2.8,6.4c1.7,1.7,3.9,2.6,6.4,2.8
				C104.9,102.6,104,100.3,102.3,98.7z"/>
		</g>
		<g id="XMLID_74_">
			<path id="XMLID_75_" class="st0" d="M114.1,75.5c-2.3-0.6-4.7-0.3-6.9,0.8c1.4,2,3.3,3.5,5.6,4.1c2.3,0.6,4.7,0.3,6.9-0.8
				C118.3,77.6,116.4,76.1,114.1,75.5z"/>
		</g>
		<g id="XMLID_76_">
			<path id="XMLID_77_" class="st0" d="M112.8,49.6c-2.3,0.6-4.2,2.1-5.6,4.1c2.2,1.1,4.6,1.4,6.9,0.8s4.2-2.1,5.6-4.1
				C117.5,49.3,115.1,48.9,112.8,49.6z"/>
		</g>
		<g id="XMLID_78_">
			<path id="XMLID_79_" class="st0" d="M98.7,27.7c-1.7,1.7-2.6,3.9-2.8,6.4c2.5-0.2,4.7-1.1,6.4-2.8c1.7-1.7,2.6-3.9,2.8-6.4
				C102.6,25.1,100.3,26,98.7,27.7z"/>
		</g>
		<g id="XMLID_80_">
			<path id="XMLID_81_" class="st0" d="M75.5,15.9c-0.6,2.3-0.3,4.7,0.8,6.9c2-1.4,3.5-3.3,4.1-5.6c0.6-2.3,0.3-4.7-0.8-6.9
				C77.6,11.7,76.1,13.6,75.5,15.9z"/>
		</g>
	</g>
	<g id="XMLID_106_">
		<circle id="XMLID_16_" class="st0" cx="65" cy="2.3" r="2.3"/>
		<circle id="XMLID_20_" class="st0" cx="51.1" cy="3.9" r="2.3"/>
		<circle id="XMLID_21_" class="st0" cx="37.8" cy="8.5" r="2.3"/>
		<circle id="XMLID_22_" class="st0" cx="25.9" cy="16" r="2.3"/>
		<circle id="XMLID_23_" class="st0" cx="16" cy="25.9" r="2.3"/>
		<circle id="XMLID_24_" class="st0" cx="8.5" cy="37.8" r="2.3"/>
		<circle id="XMLID_25_" class="st0" cx="3.9" cy="51.1" r="2.3"/>
		<circle id="XMLID_26_" class="st0" cx="2.3" cy="65" r="2.3"/>
		<circle id="XMLID_27_" class="st0" cx="3.9" cy="78.9" r="2.3"/>
		<circle id="XMLID_28_" class="st0" cx="8.5" cy="92.2" r="2.3"/>
		<circle id="XMLID_29_" class="st0" cx="16" cy="104.1" r="2.3"/>
		<circle id="XMLID_30_" class="st0" cx="25.9" cy="114" r="2.3"/>
		<circle id="XMLID_31_" class="st0" cx="37.8" cy="121.5" r="2.3"/>
		<circle id="XMLID_32_" class="st0" cx="51.1" cy="126.1" r="2.3"/>
		<circle id="XMLID_33_" class="st0" cx="65" cy="127.7" r="2.3"/>
		<circle id="XMLID_34_" class="st0" cx="78.9" cy="126.1" r="2.3"/>
		<circle id="XMLID_35_" class="st0" cx="92.2" cy="121.5" r="2.3"/>
		<circle id="XMLID_36_" class="st0" cx="104.1" cy="114" r="2.3"/>
		<circle id="XMLID_37_" class="st0" cx="114" cy="104.1" r="2.3"/>
		<circle id="XMLID_38_" class="st0" cx="121.5" cy="92.2" r="2.3"/>
		<circle id="XMLID_39_" class="st0" cx="126.1" cy="78.9" r="2.3"/>
		<circle id="XMLID_40_" class="st0" cx="127.7" cy="65" r="2.3"/>
		<circle id="XMLID_41_" class="st0" cx="126.1" cy="51.1" r="2.3"/>
		<circle id="XMLID_42_" class="st0" cx="121.5" cy="37.8" r="2.3"/>
		<circle id="XMLID_43_" class="st0" cx="114" cy="25.9" r="2.3"/>
		<circle id="XMLID_44_" class="st0" cx="104.1" cy="16" r="2.3"/>
		<circle id="XMLID_45_" class="st0" cx="92.2" cy="8.5" r="2.3"/>
		<circle id="XMLID_70_" class="st0" cx="78.9" cy="3.9" r="2.3"/>
	</g>
</svg>
