<?xml version="1.0" encoding="utf-8"?>
<!-- Generator: Adobe Illustrator 19.0.0, SVG Export Plug-In . SVG Version: 6.00 Build 0)  -->
<svg version="1.1" id="图层_1" xmlns="http://www.w3.org/2000/svg" xmlns:xlink="http://www.w3.org/1999/xlink" x="0px" y="0px"
	 viewBox="0 0 180 180" style="enable-background:new 0 0 180 180;" xml:space="preserve">
<style type="text/css">
	.st0{fill:#8F82BC;}
</style>
<g id="XMLID_105_">
	<g id="XMLID_3_">
		<path id="XMLID_17_" class="st0" d="M68.6,23.9c0.9,3.2,2.9,5.8,5.7,7.8c1.5-3.1,1.9-6.4,1.1-9.6c-0.9-3.2-2.9-5.8-5.7-7.8
			C68.2,17.3,67.8,20.7,68.6,23.9z"/>
	</g>
	<g id="XMLID_6_">
		<path id="XMLID_7_" class="st0" d="M38.4,43.4c2.3,2.3,5.4,3.6,8.9,3.9c-0.3-3.4-1.5-6.5-3.9-8.9c-2.3-2.3-5.4-3.6-8.9-3.9
			C34.8,38,36.1,41.1,38.4,43.4z"/>
	</g>
	<g id="XMLID_8_">
		<path id="XMLID_9_" class="st0" d="M22,75.4c3.2,0.9,6.5,0.4,9.6-1.1c-1.9-2.8-4.6-4.9-7.8-5.7c-3.2-0.9-6.5-0.4-9.6,1.1
			C16.2,72.5,18.8,74.6,22,75.4z"/>
	</g>
	<g id="XMLID_10_">
		<path id="XMLID_11_" class="st0" d="M23.9,111.4c3.2-0.9,5.8-2.9,7.8-5.7c-3.1-1.5-6.4-1.9-9.6-1.1c-3.2,0.9-5.8,2.9-7.8,5.7
			C17.3,111.8,20.7,112.2,23.9,111.4z"/>
	</g>
	<g id="XMLID_12_">
		<path id="XMLID_13_" class="st0" d="M43.4,141.6c2.3-2.3,3.6-5.4,3.9-8.9c-3.4,0.3-6.5,1.5-8.9,3.9c-2.3,2.3-3.6,5.4-3.9,8.9
			C38,145.2,41.1,143.9,43.4,141.6z"/>
	</g>
	<g id="XMLID_14_">
		<path id="XMLID_15_" class="st0" d="M75.4,158c0.9-3.2,0.4-6.5-1.1-9.6c-2.8,1.9-4.9,4.6-5.7,7.8c-0.9,3.2-0.4,6.5,1.1,9.6
			C72.5,163.8,74.6,161.2,75.4,158z"/>
	</g>
	<g id="XMLID_19_">
		<path id="XMLID_71_" class="st0" d="M111.4,156.1c-0.9-3.2-2.9-5.8-5.7-7.8c-1.5,3.1-1.9,6.4-1.1,9.6c0.9,3.2,2.9,5.8,5.7,7.8
			C111.8,162.7,112.2,159.3,111.4,156.1z"/>
	</g>
	<g id="XMLID_72_">
		<path id="XMLID_73_" class="st0" d="M141.6,136.6c-2.3-2.3-5.4-3.6-8.9-3.9c0.3,3.4,1.5,6.5,3.9,8.9s5.4,3.6,8.9,3.9
			C145.2,142,143.9,138.9,141.6,136.6z"/>
	</g>
	<g id="XMLID_74_">
		<path id="XMLID_75_" class="st0" d="M158,104.6c-3.2-0.9-6.5-0.4-9.6,1.1c1.9,2.8,4.6,4.9,7.8,5.7c3.2,0.9,6.5,0.4,9.6-1.1
			C163.8,107.5,161.2,105.4,158,104.6z"/>
	</g>
	<g id="XMLID_76_">
		<path id="XMLID_77_" class="st0" d="M156.1,68.6c-3.2,0.9-5.8,2.9-7.8,5.7c3.1,1.5,6.4,1.9,9.6,1.1c3.2-0.9,5.8-2.9,7.8-5.7
			C162.7,68.2,159.3,67.8,156.1,68.6z"/>
	</g>
	<g id="XMLID_78_">
		<path id="XMLID_79_" class="st0" d="M136.6,38.4c-2.3,2.3-3.6,5.4-3.9,8.9c3.4-0.3,6.5-1.5,8.9-3.9c2.3-2.3,3.6-5.4,3.9-8.9
			C142,34.8,138.9,36.1,136.6,38.4z"/>
	</g>
	<g id="XMLID_80_">
		<path id="XMLID_81_" class="st0" d="M104.6,22c-0.9,3.2-0.4,6.5,1.1,9.6c2.8-1.9,4.9-4.6,5.7-7.8c0.9-3.2,0.4-6.5-1.1-9.6
			C107.5,16.2,105.4,18.8,104.6,22z"/>
	</g>
</g>
<g id="XMLID_106_">
	<circle id="XMLID_16_" class="st0" cx="90" cy="3.2" r="3.2"/>
	<circle id="XMLID_20_" class="st0" cx="70.7" cy="5.4" r="3.2"/>
	<circle id="XMLID_21_" class="st0" cx="52.3" cy="11.8" r="3.2"/>
	<circle id="XMLID_22_" class="st0" cx="35.9" cy="22.1" r="3.2"/>
	<circle id="XMLID_23_" class="st0" cx="22.1" cy="35.9" r="3.2"/>
	<circle id="XMLID_24_" class="st0" cx="11.8" cy="52.3" r="3.2"/>
	<circle id="XMLID_25_" class="st0" cx="5.4" cy="70.7" r="3.2"/>
	<circle id="XMLID_26_" class="st0" cx="3.2" cy="90" r="3.2"/>
	<circle id="XMLID_27_" class="st0" cx="5.4" cy="109.3" r="3.2"/>
	<circle id="XMLID_28_" class="st0" cx="11.8" cy="127.7" r="3.2"/>
	<circle id="XMLID_29_" class="st0" cx="22.1" cy="144.1" r="3.2"/>
	<circle id="XMLID_30_" class="st0" cx="35.9" cy="157.9" r="3.2"/>
	<circle id="XMLID_31_" class="st0" cx="52.3" cy="168.2" r="3.2"/>
	<circle id="XMLID_32_" class="st0" cx="70.7" cy="174.6" r="3.2"/>
	<circle id="XMLID_33_" class="st0" cx="90" cy="176.8" r="3.2"/>
	<circle id="XMLID_34_" class="st0" cx="109.3" cy="174.6" r="3.2"/>
	<circle id="XMLID_35_" class="st0" cx="127.7" cy="168.2" r="3.2"/>
	<circle id="XMLID_36_" class="st0" cx="144.1" cy="157.9" r="3.2"/>
	<circle id="XMLID_37_" class="st0" cx="157.9" cy="144.1" r="3.2"/>
	<circle id="XMLID_38_" class="st0" cx="168.2" cy="127.7" r="3.2"/>
	<circle id="XMLID_39_" class="st0" cx="174.6" cy="109.3" r="3.2"/>
	<circle id="XMLID_40_" class="st0" cx="176.8" cy="90" r="3.2"/>
	<circle id="XMLID_41_" class="st0" cx="174.6" cy="70.7" r="3.2"/>
	<circle id="XMLID_42_" class="st0" cx="168.2" cy="52.3" r="3.2"/>
	<circle id="XMLID_43_" class="st0" cx="157.9" cy="35.9" r="3.2"/>
	<circle id="XMLID_44_" class="st0" cx="144.1" cy="22.1" r="3.2"/>
	<circle id="XMLID_45_" class="st0" cx="127.7" cy="11.8" r="3.2"/>
	<circle id="XMLID_70_" class="st0" cx="109.3" cy="5.4" r="3.2"/>
</g>
<g id="XMLID_4_">
	<g id="XMLID_46_">
		<rect id="XMLID_5_" x="88.3" y="41.4" class="st0" width="3.4" height="13.7"/>
	</g>
	<g id="XMLID_47_">
		
			<rect id="XMLID_48_" x="77.5" y="42.8" transform="matrix(0.9659 -0.2588 0.2588 0.9659 -10.1491 22.186)" class="st0" width="3.4" height="13.7"/>
	</g>
	<g id="XMLID_49_">
		
			<rect id="XMLID_50_" x="67.4" y="47" transform="matrix(0.866 -0.5 0.5 0.866 -17.6476 41.7631)" class="st0" width="3.4" height="13.7"/>
	</g>
	<g id="XMLID_51_">
		
			<rect id="XMLID_52_" x="58.7" y="53.6" transform="matrix(0.7071 -0.7071 0.7071 0.7071 -25.0405 60.453)" class="st0" width="3.4" height="13.7"/>
	</g>
	<g id="XMLID_53_">
		
			<rect id="XMLID_54_" x="52.1" y="62.2" transform="matrix(0.5 -0.866 0.866 0.5 -32.9423 81.1566)" class="st0" width="3.4" height="13.7"/>
	</g>
	<g id="XMLID_55_">
		
			<rect id="XMLID_56_" x="47.9" y="72.3" transform="matrix(0.2588 -0.9659 0.9659 0.2588 -39.6961 106.6372)" class="st0" width="3.4" height="13.7"/>
	</g>
	<g id="XMLID_57_">
		<rect id="XMLID_58_" x="41.4" y="88.3" class="st0" width="13.7" height="3.4"/>
	</g>
	<g id="XMLID_59_">
		
			<rect id="XMLID_60_" x="47.9" y="94" transform="matrix(-0.2588 -0.9659 0.9659 -0.2588 -34.8944 174.8545)" class="st0" width="3.4" height="13.7"/>
	</g>
	<g id="XMLID_61_">
		
			<rect id="XMLID_62_" x="52.1" y="104" transform="matrix(-0.5 -0.866 0.866 -0.5 -15.3173 212.9423)" class="st0" width="3.4" height="13.7"/>
	</g>
	<g id="XMLID_63_">
		
			<rect id="XMLID_64_" x="58.7" y="112.7" transform="matrix(-0.7071 -0.7071 0.7071 -0.7071 18.6673 246.8262)" class="st0" width="3.4" height="13.7"/>
	</g>
	<g id="XMLID_65_">
		
			<rect id="XMLID_66_" x="67.4" y="119.3" transform="matrix(-0.866 -0.5 0.5 -0.866 65.8619 270.0226)" class="st0" width="3.4" height="13.7"/>
	</g>
	<g id="XMLID_67_">
		
			<rect id="XMLID_68_" x="77.5" y="123.5" transform="matrix(-0.9659 -0.2588 0.2588 -0.9659 121.9318 276.7764)" class="st0" width="3.4" height="13.7"/>
	</g>
	<g id="XMLID_69_">
		<rect id="XMLID_82_" x="88.3" y="124.9" class="st0" width="3.4" height="13.7"/>
	</g>
	<g id="XMLID_83_">
		
			<rect id="XMLID_84_" x="99.1" y="123.5" transform="matrix(-0.9659 0.2588 -0.2588 -0.9659 231.9348 230.189)" class="st0" width="3.4" height="13.7"/>
	</g>
	<g id="XMLID_85_">
		
			<rect id="XMLID_86_" x="109.2" y="119.3" transform="matrix(-0.866 0.5 -0.5 -0.866 270.0226 180.0226)" class="st0" width="3.4" height="13.7"/>
	</g>
	<g id="XMLID_87_">
		
			<rect id="XMLID_88_" x="117.8" y="112.7" transform="matrix(-0.7071 0.7071 -0.7071 -0.7071 288.6119 119.547)" class="st0" width="3.4" height="13.7"/>
	</g>
	<g id="XMLID_89_">
		
			<rect id="XMLID_90_" x="124.5" y="104" transform="matrix(-0.5 0.866 -0.866 -0.5 285.3173 57.0577)" class="st0" width="3.4" height="13.7"/>
	</g>
	<g id="XMLID_91_">
		
			<rect id="XMLID_92_" x="128.6" y="94" transform="matrix(-0.2588 0.9659 -0.9659 -0.2588 261.4818 0.9878)" class="st0" width="3.4" height="13.7"/>
	</g>
	<g id="XMLID_93_">
		<rect id="XMLID_94_" x="124.9" y="88.3" class="st0" width="13.7" height="3.4"/>
	</g>
	<g id="XMLID_95_">
		
			<rect id="XMLID_96_" x="128.6" y="72.3" transform="matrix(0.2588 0.9659 -0.9659 0.2588 173.1087 -67.2295)" class="st0" width="3.4" height="13.7"/>
	</g>
	<g id="XMLID_97_">
		
			<rect id="XMLID_98_" x="124.5" y="62.3" transform="matrix(0.5 0.866 -0.866 0.5 122.9423 -74.728)" class="st0" width="3.4" height="13.7"/>
	</g>
	<g id="XMLID_99_">
		
			<rect id="XMLID_100_" x="117.8" y="53.6" transform="matrix(0.7071 0.7071 -0.7071 0.7071 77.7613 -66.8262)" class="st0" width="3.4" height="13.7"/>
	</g>
	<g id="XMLID_101_">
		
			<rect id="XMLID_102_" x="109.2" y="47" transform="matrix(0.866 0.5 -0.5 0.866 41.7631 -48.2369)" class="st0" width="3.4" height="13.7"/>
	</g>
	<g id="XMLID_103_">
		
			<rect id="XMLID_104_" x="99.1" y="42.8" transform="matrix(0.9659 0.2588 -0.2588 0.9659 16.2825 -24.4015)" class="st0" width="3.4" height="13.7"/>
	</g>
</g>
</svg>
