<?xml version="1.0" encoding="utf-8"?>
<!-- Generator: Adobe Illustrator 19.0.0, SVG Export Plug-In . SVG Version: 6.00 Build 0)  -->
<svg version="1.1" id="图层_1" xmlns="http://www.w3.org/2000/svg" xmlns:xlink="http://www.w3.org/1999/xlink" x="0px" y="0px"
	 viewBox="0 0 140 140" style="enable-background:new 0 0 140 140;" xml:space="preserve">
<style type="text/css">
	.st0{fill:#8F82BC;}
</style>
<g id="XMLID_105_">
	<g id="XMLID_3_">
		<path id="XMLID_17_" class="st0" d="M50.2,8.9c0.8,3,2.7,5.4,5.3,7.2c1.4-2.9,1.8-5.9,1-8.9S53.9,1.8,51.2,0
			C49.9,2.9,49.4,5.9,50.2,8.9z"/>
	</g>
	<g id="XMLID_6_">
		<path id="XMLID_7_" class="st0" d="M22.3,26.9c2.2,2.2,5,3.3,8.2,3.6c-0.2-3.2-1.4-6-3.6-8.2s-5-3.3-8.2-3.6
			C19,21.9,20.2,24.8,22.3,26.9z"/>
	</g>
	<g id="XMLID_8_">
		<path id="XMLID_9_" class="st0" d="M7.2,56.6c3,0.8,6,0.4,8.9-1c-1.8-2.6-4.2-4.5-7.2-5.3s-6-0.4-8.9,1
			C1.8,53.9,4.2,55.8,7.2,56.6z"/>
	</g>
	<g id="XMLID_10_">
		<path id="XMLID_11_" class="st0" d="M8.9,89.8c3-0.8,5.4-2.7,7.2-5.3c-2.9-1.4-5.9-1.8-8.9-1c-3,0.8-5.4,2.7-7.2,5.3
			C2.9,90.1,5.9,90.6,8.9,89.8z"/>
	</g>
	<g id="XMLID_12_">
		<path id="XMLID_13_" class="st0" d="M26.9,117.7c2.2-2.2,3.3-5,3.6-8.2c-3.2,0.2-6,1.4-8.2,3.6s-3.3,5-3.6,8.2
			C21.9,121,24.8,119.8,26.9,117.7z"/>
	</g>
	<g id="XMLID_14_">
		<path id="XMLID_15_" class="st0" d="M56.6,132.8c0.8-3,0.4-6-1-8.9c-2.6,1.8-4.5,4.2-5.3,7.2c-0.8,3-0.4,6,1,8.9
			C53.9,138.2,55.8,135.8,56.6,132.8z"/>
	</g>
	<g id="XMLID_19_">
		<path id="XMLID_71_" class="st0" d="M89.8,131.1c-0.8-3-2.7-5.4-5.3-7.2c-1.4,2.9-1.8,5.9-1,8.9c0.8,3,2.7,5.4,5.3,7.2
			C90.1,137.1,90.6,134.1,89.8,131.1z"/>
	</g>
	<g id="XMLID_72_">
		<path id="XMLID_73_" class="st0" d="M117.7,113.1c-2.2-2.2-5-3.3-8.2-3.6c0.2,3.2,1.4,6,3.6,8.2s5,3.3,8.2,3.6
			C121,118.1,119.8,115.2,117.7,113.1z"/>
	</g>
	<g id="XMLID_74_">
		<path id="XMLID_75_" class="st0" d="M132.8,83.4c-3-0.8-6-0.4-8.9,1c1.8,2.6,4.2,4.5,7.2,5.3c3,0.8,6,0.4,8.9-1
			C138.2,86.1,135.8,84.2,132.8,83.4z"/>
	</g>
	<g id="XMLID_76_">
		<path id="XMLID_77_" class="st0" d="M131.1,50.2c-3,0.8-5.4,2.7-7.2,5.3c2.9,1.4,5.9,1.8,8.9,1s5.4-2.7,7.2-5.3
			C137.1,49.9,134.1,49.4,131.1,50.2z"/>
	</g>
	<g id="XMLID_78_">
		<path id="XMLID_79_" class="st0" d="M113.1,22.3c-2.2,2.2-3.3,5-3.6,8.2c3.2-0.2,6-1.4,8.2-3.6s3.3-5,3.6-8.2
			C118.1,19,115.2,20.2,113.1,22.3z"/>
	</g>
	<g id="XMLID_80_">
		<path id="XMLID_81_" class="st0" d="M83.4,7.2c-0.8,3-0.4,6,1,8.9c2.6-1.8,4.5-4.2,5.3-7.2c0.8-3,0.4-6-1-8.9
			C86.1,1.8,84.2,4.2,83.4,7.2z"/>
	</g>
</g>
<g id="XMLID_106_">
	<circle id="XMLID_16_" class="st0" cx="70" cy="24.2" r="1.7"/>
	<circle id="XMLID_20_" class="st0" cx="59.8" cy="25.3" r="1.7"/>
	<circle id="XMLID_21_" class="st0" cx="50.1" cy="28.7" r="1.7"/>
	<circle id="XMLID_22_" class="st0" cx="41.4" cy="34.2" r="1.7"/>
	<circle id="XMLID_23_" class="st0" cx="34.2" cy="41.4" r="1.7"/>
	<circle id="XMLID_24_" class="st0" cx="28.7" cy="50.1" r="1.7"/>
	<circle id="XMLID_25_" class="st0" cx="25.3" cy="59.8" r="1.7"/>
	<circle id="XMLID_26_" class="st0" cx="24.2" cy="70" r="1.7"/>
	<circle id="XMLID_27_" class="st0" cx="25.3" cy="80.2" r="1.7"/>
	<circle id="XMLID_28_" class="st0" cx="28.7" cy="89.9" r="1.7"/>
	<circle id="XMLID_29_" class="st0" cx="34.2" cy="98.6" r="1.7"/>
	<circle id="XMLID_30_" class="st0" cx="41.4" cy="105.8" r="1.7"/>
	<circle id="XMLID_31_" class="st0" cx="50.1" cy="111.3" r="1.7"/>
	<circle id="XMLID_32_" class="st0" cx="59.8" cy="114.7" r="1.7"/>
	<circle id="XMLID_33_" class="st0" cx="70" cy="115.8" r="1.7"/>
	<circle id="XMLID_34_" class="st0" cx="80.2" cy="114.7" r="1.7"/>
	<circle id="XMLID_35_" class="st0" cx="89.9" cy="111.3" r="1.7"/>
	<circle id="XMLID_36_" class="st0" cx="98.6" cy="105.8" r="1.7"/>
	<circle id="XMLID_37_" class="st0" cx="105.8" cy="98.6" r="1.7"/>
	<circle id="XMLID_38_" class="st0" cx="111.3" cy="89.9" r="1.7"/>
	<circle id="XMLID_39_" class="st0" cx="114.7" cy="80.2" r="1.7"/>
	<circle id="XMLID_40_" class="st0" cx="115.8" cy="70" r="1.7"/>
	<circle id="XMLID_41_" class="st0" cx="114.7" cy="59.8" r="1.7"/>
	<circle id="XMLID_42_" class="st0" cx="111.3" cy="50.1" r="1.7"/>
	<circle id="XMLID_43_" class="st0" cx="105.8" cy="41.4" r="1.7"/>
	<circle id="XMLID_44_" class="st0" cx="98.6" cy="34.2" r="1.7"/>
	<circle id="XMLID_45_" class="st0" cx="89.9" cy="28.7" r="1.7"/>
	<circle id="XMLID_70_" class="st0" cx="80.2" cy="25.3" r="1.7"/>
</g>
</svg>
