<?xml version="1.0" encoding="utf-8"?>
<!-- Generator: Adobe Illustrator 19.0.0, SVG Export Plug-In . SVG Version: 6.00 Build 0)  -->
<svg version="1.1" id="图层_1" xmlns="http://www.w3.org/2000/svg" xmlns:xlink="http://www.w3.org/1999/xlink" x="0px" y="0px"
	 viewBox="0 0 200 200" style="enable-background:new 0 0 200 200;" xml:space="preserve">
<style type="text/css">
	.st0{fill:#004986;}
	.st1{fill-rule:evenodd;clip-rule:evenodd;fill:none;}
	.st2{fill-rule:evenodd;clip-rule:evenodd;fill:#004986;}
</style>
<g>
	
		<rect id="XMLID_22_" x="121.1" y="-1.1" transform="matrix(0.4021 0.9156 -0.9156 0.4021 109.3307 -87.1452)" class="st0" width="0.5" height="82.4"/>
</g>
<g>
	<path class="st1" d="M113.9,112.5l83.2,1"/>
</g>
<g>
	
		<rect id="XMLID_21_" x="-11.9" y="148.1" transform="matrix(0.7089 0.7053 -0.7053 0.7089 120.7046 4.1801)" class="st0" width="134.3" height="0.5"/>
</g>
<g>
	<polygon id="XMLID_20_" class="st0" points="170.5,168.5 170.2,168.5 35.3,168 35.3,167.8 37.3,30.5 37.5,30.5 159.6,23.8 
		159.6,24.3 37.7,31 35.8,167.5 169.9,168 158.9,106.3 159.4,106.2 	"/>
</g>
<g>
	<polygon id="XMLID_18_" class="st0" points="8.3,99.7 8,99.3 103.4,4.4 103.6,4.7 166.1,84 165.7,84.3 103.3,5.2 	"/>
</g>
<g>
	
		<rect id="XMLID_17_" x="119.7" y="63.7" transform="matrix(0.9862 0.1654 -0.1654 0.9862 12.7474 -25.1663)" class="st0" width="75.6" height="0.5"/>
</g>
<g>
	
		<rect id="XMLID_11_" x="36.1" y="49.8" transform="matrix(0.9705 0.2411 -0.2411 0.9705 15.4745 -26.4621)" class="st0" width="159.5" height="0.5"/>
</g>
<g>
	
		<rect id="XMLID_10_" x="44.7" y="35.2" transform="matrix(0.4902 0.8716 -0.8716 0.4902 92.4228 0.6297)" class="st0" width="2" height="88.3"/>
</g>
<g>
	
		<rect id="XMLID_5_" x="35.8" y="43.3" transform="matrix(0.9493 0.3143 -0.3143 0.9493 17.9388 -22.5754)" class="st0" width="86.4" height="2"/>
</g>
<g>
	
		<rect id="XMLID_3_" x="2.7" y="117.6" transform="matrix(0.8839 0.4678 -0.4678 0.8839 60.1586 -5.0887)" class="st0" width="75.2" height="2"/>
</g>
<g>
	
		<rect id="XMLID_19_" x="141.1" y="99.7" transform="matrix(0.803 0.5959 -0.5959 0.803 103.8362 -59.5843)" class="st0" width="2" height="55.1"/>
</g>
<g>
	
		<rect id="XMLID_16_" x="108.5" y="128.1" transform="matrix(0.7979 0.6028 -0.6028 0.7979 104.7873 -55.7834)" class="st0" width="54.2" height="0.5"/>
</g>
<g>
	<polygon id="XMLID_15_" class="st0" points="125,150.2 125,149.8 158.1,145 197,113.3 197.3,113.7 158.3,145.4 158.2,145.4 	"/>
</g>
<g>
	<polygon id="XMLID_14_" class="st0" points="169.6,168.5 125.9,150.7 35.2,167.6 60.8,95.7 37.7,30.9 38.2,30.7 61.3,95.7 
		61.3,95.8 36,167 126,150.2 126.1,150.2 169.8,168 	"/>
</g>
<g>
	
		<rect id="XMLID_13_" x="93" y="2.4" transform="matrix(0.9332 0.3592 -0.3592 0.9332 17.1935 -31.4681)" class="st0" width="0.5" height="56.2"/>
</g>
<g>
	
		<rect id="XMLID_9_" x="138.9" y="14.2" transform="matrix(0.6592 0.752 -0.752 0.6592 78.0678 -91.4288)" class="st0" width="2" height="52.4"/>
</g>
<g>
	
		<rect id="XMLID_8_" x="131.5" y="53.1" transform="matrix(9.579799e-002 0.9954 -0.9954 9.579799e-002 201.2769 -113.3093)" class="st0" width="63" height="2"/>
</g>
<g>
	
		<rect id="XMLID_7_" x="84.4" y="30.1" transform="matrix(0.2865 0.9581 -0.9581 0.2865 109.9712 -85.4252)" class="st0" width="55.9" height="2"/>
</g>
<g>
	
		<rect id="XMLID_6_" x="34.5" y="42.5" transform="matrix(0.8675 0.4974 -0.4974 0.8675 29.7412 -24.6236)" class="st0" width="53.1" height="2"/>
</g>
<g>
	<polygon id="XMLID_4_" class="st0" points="170,168.8 157.5,144.7 158.2,105.2 160.2,105.2 159.5,144.3 171.8,167.8 	"/>
</g>
<g>
	<polygon id="XMLID_59_" class="st0" points="104.8,196.1 103.1,195.3 102.5,195.6 73.2,137.7 35.7,168.7 34.4,167.2 73.9,134.6 
		103.7,193.6 124.4,149 126.2,149.8 	"/>
</g>
<g>
	
		<rect id="XMLID_47_" x="33.6" y="71.8" transform="matrix(8.009461e-002 0.9968 -0.9968 8.009461e-002 130.3237 56.3806)" class="st0" width="2" height="54"/>
</g>
<g>
	
		<rect id="XMLID_54_" x="129.9" y="133.2" transform="matrix(0.6898 0.724 -0.724 0.6898 164.2481 -41.8146)" class="st0" width="2" height="75.1"/>
</g>
<g id="XMLID_50_">
	<path class="st2" d="M62.8,93.4c1.8,0,3.2,1.4,3.2,3.2c0,1.8-1.4,3.2-3.2,3.2c-1.8,0-3.2-1.4-3.2-3.2C59.6,94.9,61,93.4,62.8,93.4z
		"/>
</g>
<g>
	<path class="st2" d="M38.1,27.1c1.8,0,3.2,1.4,3.2,3.2c0,1.8-1.4,3.2-3.2,3.2c-1.8,0-3.2-1.4-3.2-3.2
		C34.9,28.6,36.4,27.1,38.1,27.1z"/>
</g>
<g id="XMLID_49_">
	<path class="st2" d="M83.8,53.1c2.6,0,4.7,2.1,4.7,4.7c0,2.6-2.1,4.7-4.7,4.7c-2.6,0-4.7-2.1-4.7-4.7
		C79.1,55.2,81.2,53.1,83.8,53.1z"/>
</g>
<g id="XMLID_48_">
	<path class="st2" d="M119.9,51c4.4,0,7.9,3.6,7.9,7.9c0,4.4-3.6,7.9-7.9,7.9c-4.4,0-7.9-3.6-7.9-7.9C112,54.5,115.5,51,119.9,51z"
		/>
</g>
<g>
	<path class="st2" d="M113.6,105.9c2.9,0,5.3,2.4,5.3,5.3c0,2.9-2.4,5.3-5.3,5.3c-2.9,0-5.3-2.4-5.3-5.3
		C108.3,108.3,110.6,105.9,113.6,105.9z"/>
</g>
<g>
	<path class="st2" d="M158.8,101.3c1.9,0,3.4,1.5,3.4,3.4c0,1.9-1.5,3.4-3.4,3.4c-1.9,0-3.4-1.5-3.4-3.4
		C155.4,102.8,156.9,101.3,158.8,101.3z"/>
</g>
<g>
	<path class="st2" d="M157.5,137.5c3.8,0,7,3.1,7,7c0,3.9-3.1,7-7,7c-3.8,0-7-3.1-7-7C150.5,140.6,153.6,137.5,157.5,137.5z"/>
</g>
<g id="XMLID_51_">
	<path class="st2" d="M73.5,131.1c2.8,0,5.1,2.3,5.1,5.1c0,2.8-2.3,5.1-5.1,5.1c-2.8,0-5.1-2.3-5.1-5.1
		C68.4,133.4,70.7,131.1,73.5,131.1z"/>
</g>
<g id="XMLID_53_">
	<path class="st2" d="M35.6,162.3c3.3,0,6,2.7,6,6c0,3.3-2.7,6-6,6c-3.3,0-6-2.7-6-6C29.5,165,32.2,162.3,35.6,162.3z"/>
</g>
<g>
	<path class="st2" d="M165.8,81.4c2.4,0,4.3,1.9,4.3,4.3c0,2.4-1.9,4.3-4.3,4.3c-2.4,0-4.3-1.9-4.3-4.3
		C161.5,83.3,163.4,81.4,165.8,81.4z"/>
</g>
<g>
	<path class="st2" d="M193.6,63.6c3.1,0,5.7,2.5,5.7,5.7c0,3.1-2.5,5.7-5.7,5.7c-3.1,0-5.7-2.5-5.7-5.7
		C187.9,66.1,190.5,63.6,193.6,63.6z"/>
</g>
<g>
	<path class="st2" d="M160.2,20.1c1.6,0,2.8,1.3,2.8,2.8s-1.3,2.8-2.8,2.8s-2.8-1.3-2.8-2.8S158.6,20.1,160.2,20.1z"/>
</g>
<g>
	<path class="st2" d="M8.4,91.8c4.6,0,8.4,3.8,8.4,8.4c0,4.6-3.8,8.4-8.4,8.4c-4.6,0-8.4-3.8-8.4-8.4C0,95.6,3.8,91.8,8.4,91.8z"/>
</g>
<g>
	<path class="st2" d="M125.2,145.6c2.1,0,3.8,1.7,3.8,3.8c0,2.1-1.7,3.8-3.8,3.8c-2.1,0-3.8-1.7-3.8-3.8
		C121.4,147.3,123.1,145.6,125.2,145.6z"/>
</g>
<g id="XMLID_52_">
	<path class="st2" d="M170.9,163.1c2.7,0,4.9,2.2,4.9,4.9c0,2.7-2.2,4.9-4.9,4.9c-2.7,0-4.9-2.2-4.9-4.9
		C166,165.3,168.2,163.1,170.9,163.1z"/>
</g>
<g>
	<path class="st2" d="M197.4,110.5c1.5,0,2.6,1.2,2.6,2.6s-1.2,2.6-2.6,2.6c-1.5,0-2.6-1.2-2.6-2.6S195.9,110.5,197.4,110.5z"/>
</g>
<g>
	<path class="st2" d="M102.9,0c2.9,0,5.3,2.4,5.3,5.3c0,2.9-2.4,5.3-5.3,5.3c-2.9,0-5.3-2.4-5.3-5.3C97.6,2.4,100,0,102.9,0z"/>
</g>
<g>
	<path class="st2" d="M103.6,191.8c2.3,0,4.1,1.8,4.1,4.1c0,2.3-1.8,4.1-4.1,4.1s-4.1-1.8-4.1-4.1
		C99.5,193.6,101.4,191.8,103.6,191.8z"/>
</g>
<g id="XMLID_25_">
	<path id="XMLID_55_" class="st0" d="M103.7,198.2c-0.2,0-0.4,0-0.6-0.1l-68.7-28c-0.4-0.2-0.7-0.4-0.8-0.8L5.3,101.6
		c-0.2-0.4-0.2-0.8,0-1.2l30.6-71.1c0.2-0.4,0.5-0.7,0.8-0.8l66.1-26.1c0.3-0.1,0.7-0.1,1,0l56.6,18.9c0.3,0.1,0.5,0.3,0.7,0.5
		l35.1,47.6c0.3,0.4,0.4,0.8,0.3,1.2s-0.4,0.8-0.8,1l-29.1,15.5c-0.5,0.2-1,0.2-1.5,0l-45.7-27.4l-34.2-0.7L63.8,96.3l11.3,38.3
		l47.9,12.7l-11.6-35.9c-0.1-0.4-0.1-0.9,0.2-1.3c0.2-0.4,0.6-0.6,1.1-0.7l46.4-6c0.2,0,0.3,0,0.5,0l38.5,8.3c0.4,0.1,0.8,0.4,1,0.8
		c0.2,0.4,0.2,0.9,0,1.3l-26.4,56.3c-0.2,0.3-0.4,0.6-0.8,0.8l-67.6,27.2C104.1,198.1,103.9,198.2,103.7,198.2z M36.2,167.5
		l67.6,27.5l66.5-26.8l25.4-54.1l-36.4-7.9l-44.4,5.8l11.9,36.8c0.2,0.5,0,1.1-0.3,1.5s-0.9,0.6-1.5,0.4l-51.3-13.6
		c-0.5-0.1-0.9-0.5-1.1-1L60.8,96.5c-0.1-0.4-0.1-0.8,0.1-1.2l22.3-38.6c0.3-0.5,0.8-0.8,1.3-0.7l35.5,0.8c0.3,0,0.5,0.1,0.7,0.2
		l45.3,27.2l26.8-14.3L159.1,24L103.4,5.4l-65,25.7L8.4,101L36.2,167.5z"/>
</g>
</svg>
