<?xml version="1.0" encoding="utf-8"?>
<!-- Generator: Adobe Illustrator 19.0.0, SVG Export Plug-In . SVG Version: 6.00 Build 0)  -->
<svg version="1.1" id="图层_1" xmlns="http://www.w3.org/2000/svg" xmlns:xlink="http://www.w3.org/1999/xlink" x="0px" y="0px"
	 viewBox="0 0 180 180" style="enable-background:new 0 0 180 180;" xml:space="preserve">
<style type="text/css">
	.st0{fill:#FFFFFF;}
	.st1{fill:#00B7EE;}
</style>
<g id="XMLID_2_">
	<path id="XMLID_58_" class="st0" d="M90,178.5c-48.8,0-88.5-39.7-88.5-88.5S41.2,1.5,90,1.5s88.5,39.7,88.5,88.5
		S138.8,178.5,90,178.5z"/>
	<path id="XMLID_49_" class="st1" d="M90,3c48,0,87,39,87,87s-39,87-87,87S3,138,3,90S42,3,90,3 M90,0C40.3,0,0,40.3,0,90
		s40.3,90,90,90s90-40.3,90-90S139.7,0,90,0L90,0z"/>
</g>
<g id="XMLID_3_">
	<path id="XMLID_55_" class="st0" d="M90,163.5c-40.5,0-73.5-33-73.5-73.5s33-73.5,73.5-73.5s73.5,33,73.5,73.5
		S130.5,163.5,90,163.5z"/>
	<path id="XMLID_44_" class="st1" d="M90,18c39.7,0,72,32.3,72,72s-32.3,72-72,72s-72-32.3-72-72S50.3,18,90,18 M90,15
		c-41.4,0-75,33.6-75,75s33.6,75,75,75s75-33.6,75-75S131.4,15,90,15L90,15z"/>
</g>
<g id="XMLID_4_">
	<path id="XMLID_51_" class="st0" d="M90,148.5c-32.3,0-58.5-26.2-58.5-58.5S57.7,31.5,90,31.5s58.5,26.2,58.5,58.5
		S122.3,148.5,90,148.5z"/>
	<path id="XMLID_43_" class="st1" d="M90,33c31.4,0,57,25.6,57,57s-25.6,57-57,57s-57-25.6-57-57S58.6,33,90,33 M90,30
		c-33.1,0-60,26.9-60,60s26.9,60,60,60s60-26.9,60-60S123.1,30,90,30L90,30z"/>
</g>
<g id="XMLID_5_">
	<path id="XMLID_47_" class="st0" d="M90,133.5c-24,0-43.5-19.5-43.5-43.5S66,46.5,90,46.5S133.5,66,133.5,90S114,133.5,90,133.5z"
		/>
	<path id="XMLID_40_" class="st1" d="M90,48c23.2,0,42,18.8,42,42s-18.8,42-42,42s-42-18.8-42-42S66.8,48,90,48 M90,45
		c-24.9,0-45,20.1-45,45s20.1,45,45,45s45-20.1,45-45S114.9,45,90,45L90,45z"/>
</g>
<g id="XMLID_6_">
	<path id="XMLID_16_" class="st0" d="M90,118.5c-15.7,0-28.5-12.8-28.5-28.5S74.3,61.5,90,61.5s28.5,12.8,28.5,28.5
		S105.7,118.5,90,118.5z"/>
	<path id="XMLID_13_" class="st1" d="M90,63c14.9,0,27,12.1,27,27s-12.1,27-27,27s-27-12.1-27-27S75.1,63,90,63 M90,60
		c-16.6,0-30,13.4-30,30s13.4,30,30,30s30-13.4,30-30S106.6,60,90,60L90,60z"/>
</g>
<g id="XMLID_7_">
	<path id="XMLID_12_" class="st0" d="M90,103.5c-7.4,0-13.5-6.1-13.5-13.5S82.6,76.5,90,76.5s13.5,6.1,13.5,13.5
		S97.4,103.5,90,103.5z"/>
	<path id="XMLID_9_" class="st1" d="M90,78c6.6,0,12,5.4,12,12s-5.4,12-12,12s-12-5.4-12-12S83.4,78,90,78 M90,75
		c-8.3,0-15,6.7-15,15s6.7,15,15,15s15-6.7,15-15S98.3,75,90,75L90,75z"/>
</g>
</svg>
