<?xml version="1.0" encoding="utf-8"?>
<!-- Generator: Adobe Illustrator 19.0.0, SVG Export Plug-In . SVG Version: 6.00 Build 0)  -->
<svg version="1.1" id="图层_1" xmlns="http://www.w3.org/2000/svg" xmlns:xlink="http://www.w3.org/1999/xlink" x="0px" y="0px"
	 viewBox="0 0 29 27" style="enable-background:new 0 0 29 27;" xml:space="preserve">
<style type="text/css">
	.st0{fill:#D6AF7C;}
</style>
<path id="XMLID_4_" class="st0" d="M21,17c-2.8,0-4-2.2-4-5c0-3.3,2.7-6,6-6h6V0H16h-3H0v6h6c3.3,0,6,2.7,6,6c0,2.8-1.2,5-4,5
	c-1.7,0-3-1.3-3-3c0-1.4,0.5-2.7,1.5-2.9C6.9,10.9,6,11.6,6,12.5C6,13.9,7.1,15,8.5,15s2.5-1.1,2.5-2.5c0-0.2,0-0.3-0.1-0.5
	C10.7,9.7,8.3,8,6,8c-3.3,0-6,2.7-6,6c0,2.3,1.3,4.2,3.1,5.3C3,19.5,3,19.7,3,20c0,1.7,1.3,3,3,3c0.2,1,1.1,1.9,2,2
	c0.9,0.1,2.2-0.2,3,0c0.8,0.2,3,2,3,2h1c0,0,2.2-1.8,3-2c0.8-0.2,2.1,0.1,3,0c0.9-0.1,1.8-1,2-2c1.7,0,3-1.3,3-3
	c0-0.3,0-0.5-0.1-0.7c1.9-1,3.1-3,3.1-5.3c0-3.3-2.7-6-6-6c-2.3,0-4.7,1.7-4.9,4c0,0.2-0.1,0.3-0.1,0.5c0,1.4,1.1,2.5,2.5,2.5
	s2.5-1.1,2.5-2.5c0-0.9-0.9-1.6-0.5-1.4c1,0.2,1.5,1.6,1.5,2.9C24,15.7,22.7,17,21,17z"/>
</svg>
